<svg id="svg" version="1.1" xmlns="http://www.w3.org/2000/svg" xmlns:xlink="http://www.w3.org/1999/xlink" width="400" height="400" viewBox="0, 0, 400,400"><g id="svgg">
<path id="path0" d="M95.167 69.367 C 95.051 69.482,93.797 69.862,92.379 70.211 C 90.007 70.794,89.309 71.048,86.400 72.381 C 84.846 73.093,83.021 74.099,82.800 74.364 C 82.690 74.496,81.962 75.079,81.183 75.659 C 79.371 77.008,77.008 79.371,75.659 81.183 C 75.079 81.962,74.496 82.690,74.364 82.800 C 74.099 83.021,73.093 84.846,72.381 86.400 C 71.062 89.277,70.788 90.007,70.125 92.400 C 69.129 95.999,69.129 104.001,70.125 107.600 C 70.788 109.993,71.062 110.723,72.381 113.600 C 73.093 115.154,74.099 116.979,74.364 117.200 C 74.496 117.310,75.079 118.038,75.659 118.817 C 77.008 120.629,79.371 122.992,81.183 124.341 C 81.962 124.921,82.690 125.504,82.800 125.636 C 83.132 126.035,85.121 127.057,88.600 128.615 C 94.436 131.229,106.681 131.312,110.800 128.766 C 111.130 128.562,111.670 128.297,112.000 128.178 C 116.060 126.707,121.571 122.535,124.310 118.857 C 124.907 118.056,125.504 117.310,125.636 117.200 C 126.036 116.867,127.079 114.835,128.613 111.400 C 129.757 108.839,130.800 103.402,130.800 100.000 C 130.800 96.598,129.757 91.161,128.613 88.600 C 127.079 85.165,126.036 83.133,125.636 82.800 C 125.504 82.690,124.921 81.962,124.341 81.183 C 122.992 79.371,120.629 77.008,118.817 75.659 C 118.038 75.079,117.310 74.496,117.200 74.364 C 116.979 74.099,115.154 73.093,113.600 72.381 C 110.718 71.060,109.992 70.788,107.600 70.136 C 105.135 69.464,95.656 68.877,95.167 69.367 M255.400 150.998 C 254.300 151.298,252.230 151.664,250.800 151.813 C 249.370 151.962,247.825 152.319,247.367 152.607 C 246.908 152.895,245.699 153.256,244.680 153.409 C 243.660 153.562,242.618 153.937,242.364 154.243 C 242.110 154.550,241.607 154.800,241.247 154.800 C 240.493 154.800,233.711 158.185,232.769 159.033 C 232.421 159.345,231.935 159.600,231.689 159.600 C 229.349 159.600,216.637 172.446,214.274 177.200 C 212.860 180.044,212.094 177.959,212.040 171.124 C 212.018 168.312,211.826 165.940,211.611 165.807 C 211.397 165.674,211.037 164.880,210.811 164.040 C 210.326 162.239,206.792 158.503,205.234 158.143 C 204.665 158.012,203.795 157.652,203.300 157.343 C 202.559 156.881,199.726 156.803,187.300 156.901 C 171.438 157.027,169.953 157.189,168.140 159.003 C 167.821 159.322,167.343 159.721,167.078 159.891 C 166.463 160.285,164.401 163.041,164.398 163.473 C 164.396 163.653,164.081 164.340,163.698 165.000 C 163.041 166.130,163.000 170.559,163.000 240.400 C 163.000 321.138,162.839 314.502,164.896 318.702 C 165.667 320.277,168.966 323.200,169.972 323.200 C 170.330 323.200,171.067 323.515,171.611 323.900 C 172.510 324.536,173.948 324.600,187.400 324.600 C 200.852 324.600,202.290 324.536,203.189 323.900 C 203.733 323.515,204.459 323.200,204.802 323.200 C 206.325 323.200,210.162 319.330,210.646 317.306 C 210.791 316.698,211.110 315.947,211.355 315.639 C 211.673 315.237,211.857 301.414,212.000 267.039 L 212.200 219.000 213.133 216.200 C 213.647 214.660,214.233 213.130,214.436 212.800 C 214.639 212.470,214.909 211.930,215.035 211.600 C 216.185 208.601,218.184 205.755,221.370 202.579 C 223.544 200.413,224.639 199.521,226.752 198.200 C 227.103 197.980,227.822 197.485,228.349 197.100 C 228.877 196.715,229.622 196.400,230.005 196.400 C 230.388 196.400,230.914 196.144,231.174 195.831 C 231.434 195.518,232.362 195.142,233.237 194.994 C 234.112 194.846,235.316 194.489,235.914 194.200 C 239.744 192.347,250.852 193.329,256.644 196.033 C 257.548 196.455,258.397 196.800,258.531 196.800 C 259.160 196.800,263.927 200.410,266.163 202.579 C 268.390 204.740,269.216 205.740,270.600 207.952 C 270.820 208.303,271.315 209.022,271.700 209.549 C 272.085 210.077,272.400 210.822,272.400 211.205 C 272.400 211.588,272.656 212.114,272.969 212.374 C 273.282 212.634,273.664 213.597,273.819 214.514 C 273.974 215.432,274.393 216.628,274.751 217.173 C 275.339 218.071,275.411 222.701,275.518 266.524 C 275.614 306.021,275.734 315.040,276.170 315.742 C 276.464 316.214,276.818 317.088,276.956 317.685 C 277.332 319.308,280.912 322.692,282.788 323.197 C 283.656 323.431,284.474 323.797,284.607 324.011 C 284.756 324.252,290.612 324.400,300.000 324.400 C 309.388 324.400,315.244 324.252,315.393 324.011 C 315.526 323.797,316.320 323.437,317.160 323.211 C 319.200 322.661,322.661 319.200,323.211 317.160 C 323.437 316.320,323.797 315.526,324.011 315.393 C 324.578 315.043,324.539 210.818,323.971 209.326 C 323.735 208.707,323.380 206.310,323.181 204.000 C 322.982 201.690,322.552 199.080,322.227 198.200 C 321.901 197.320,321.621 195.970,321.604 195.200 C 321.587 194.430,321.225 193.080,320.800 192.200 C 320.375 191.320,320.021 190.194,320.014 189.699 C 320.006 189.203,319.640 188.125,319.200 187.304 C 318.760 186.484,318.399 185.629,318.399 185.406 C 318.397 184.927,316.254 180.638,314.598 177.800 C 309.470 169.015,300.244 160.575,291.600 156.763 C 291.050 156.521,290.060 156.084,289.400 155.791 C 288.740 155.499,287.528 155.054,286.706 154.801 C 285.884 154.548,285.108 154.175,284.982 153.971 C 284.856 153.767,284.314 153.600,283.778 153.600 C 283.242 153.600,281.767 153.251,280.502 152.824 C 279.236 152.397,276.940 151.928,275.400 151.781 C 273.860 151.634,271.520 151.266,270.200 150.963 C 267.091 150.249,258.073 150.271,255.400 150.998 M83.200 157.741 C 79.478 159.548,78.961 159.988,77.260 162.800 C 75.263 166.102,75.409 160.448,75.293 238.888 C 75.187 309.937,75.243 313.625,76.476 316.800 C 79.203 323.820,82.730 324.922,101.800 324.715 C 115.992 324.562,115.420 324.656,120.032 321.720 C 120.951 321.135,121.387 320.603,122.748 318.400 C 124.721 315.206,124.600 320.298,124.600 240.600 C 124.600 157.953,124.895 166.145,121.738 161.199 C 121.030 160.089,119.082 158.756,116.445 157.576 C 113.629 156.315,85.853 156.453,83.200 157.741 " stroke="none" fill="#fafbfb" fill-rule="evenodd"></path><path id="path1" d="M82.000 0.400 C 82.000 0.637,80.521 0.800,78.363 0.800 C 75.062 0.800,74.706 0.874,74.516 1.600 C 74.337 2.284,73.970 2.400,71.986 2.400 C 69.302 2.400,68.400 2.662,68.400 3.443 C 68.400 3.837,67.872 4.000,66.600 4.000 C 65.610 4.000,64.800 4.180,64.800 4.400 C 64.800 4.620,64.530 4.800,64.200 4.800 C 63.870 4.800,63.600 4.980,63.600 5.200 C 63.600 5.420,62.880 5.600,62.000 5.600 C 60.667 5.600,60.400 5.733,60.400 6.400 C 60.400 7.067,60.133 7.200,58.800 7.200 C 57.467 7.200,57.200 7.333,57.200 8.000 C 57.200 8.667,56.933 8.800,55.600 8.800 C 54.444 8.800,54.000 8.967,54.000 9.400 C 54.000 9.730,53.640 10.023,53.200 10.050 C 52.760 10.078,52.220 10.145,52.000 10.200 C 51.780 10.255,51.420 10.322,51.200 10.350 C 50.980 10.378,50.800 10.670,50.800 11.000 C 50.800 11.330,50.485 11.627,50.100 11.661 C 49.715 11.694,49.220 11.764,49.000 11.815 C 48.780 11.866,48.375 11.928,48.100 11.954 C 47.825 11.979,47.600 12.256,47.600 12.568 C 47.600 12.881,47.061 13.255,46.402 13.399 C 45.744 13.544,45.069 13.887,44.902 14.161 C 44.736 14.436,44.285 14.776,43.900 14.918 C 43.515 15.059,43.200 15.451,43.200 15.787 C 43.200 16.124,42.862 16.400,42.449 16.400 C 42.036 16.400,41.451 16.762,41.149 17.203 C 40.847 17.645,40.105 18.044,39.500 18.091 C 38.743 18.148,38.400 18.397,38.400 18.887 C 38.400 19.279,38.113 19.600,37.763 19.600 C 37.412 19.600,37.031 19.960,36.916 20.400 C 36.800 20.843,36.370 21.200,35.953 21.200 C 35.467 21.200,35.200 21.483,35.200 22.000 C 35.200 22.529,34.933 22.800,34.414 22.800 C 33.982 22.800,33.435 23.160,33.200 23.600 C 32.965 24.040,32.508 24.400,32.186 24.400 C 31.864 24.400,31.600 24.591,31.600 24.824 C 31.600 25.057,31.420 25.136,31.200 25.000 C 30.980 24.864,30.800 25.033,30.800 25.376 C 30.800 25.719,30.601 26.000,30.357 26.000 C 30.114 26.000,30.014 26.261,30.137 26.580 C 30.285 26.967,30.167 27.085,29.780 26.937 C 29.461 26.814,29.200 26.914,29.200 27.157 C 29.200 27.401,28.840 27.600,28.400 27.600 C 27.935 27.600,27.600 27.867,27.600 28.237 C 27.600 28.588,27.240 28.969,26.800 29.084 C 26.357 29.200,26.000 29.630,26.000 30.047 C 26.000 30.524,25.717 30.800,25.228 30.800 C 24.734 30.800,24.406 31.125,24.318 31.700 C 24.243 32.195,23.947 32.551,23.661 32.490 C 23.375 32.430,23.247 32.552,23.377 32.762 C 23.507 32.973,23.430 33.258,23.207 33.396 C 22.983 33.534,22.800 33.997,22.800 34.424 C 22.800 34.933,22.525 35.200,22.000 35.200 C 21.483 35.200,21.200 35.467,21.200 35.953 C 21.200 36.370,20.843 36.800,20.400 36.916 C 19.960 37.031,19.600 37.412,19.600 37.763 C 19.600 38.133,19.265 38.400,18.800 38.400 C 18.360 38.400,18.021 38.535,18.047 38.700 C 18.181 39.546,17.959 40.422,17.658 40.236 C 17.296 40.012,16.400 41.674,16.400 42.572 C 16.400 42.866,16.040 43.201,15.600 43.316 C 15.160 43.431,14.800 43.793,14.800 44.120 C 14.800 44.447,14.540 44.814,14.222 44.936 C 13.904 45.058,13.527 45.785,13.383 46.551 C 13.201 47.522,12.951 47.879,12.561 47.730 C 12.252 47.611,11.978 47.714,11.950 47.957 C 11.922 48.201,11.855 48.760,11.800 49.200 C 11.745 49.640,11.678 50.180,11.650 50.400 C 11.623 50.620,11.330 50.800,11.000 50.800 C 10.670 50.800,10.385 50.935,10.367 51.100 C 10.173 52.871,9.850 53.852,9.373 54.119 C 9.048 54.301,8.800 55.038,8.800 55.820 C 8.800 56.933,8.645 57.200,8.000 57.200 C 7.333 57.200,7.200 57.467,7.200 58.800 C 7.200 60.133,7.067 60.400,6.400 60.400 C 5.717 60.400,5.600 60.667,5.600 62.224 C 5.600 63.273,5.439 63.948,5.220 63.812 C 4.630 63.448,4.000 64.977,4.000 66.774 C 4.000 67.897,3.828 68.400,3.443 68.400 C 2.662 68.400,2.400 69.302,2.400 71.986 C 2.400 73.970,2.284 74.337,1.600 74.516 C 0.870 74.707,0.800 75.062,0.800 78.563 C 0.800 80.854,0.639 82.400,0.400 82.400 C 0.134 82.400,0.000 116.800,0.000 184.800 C 0.000 243.787,0.150 287.200,0.353 287.200 C 0.923 287.200,1.168 285.747,1.631 279.600 C 1.871 276.410,2.307 272.810,2.600 271.600 C 2.893 270.390,3.250 268.230,3.394 266.800 C 3.537 265.370,3.898 263.390,4.195 262.400 C 4.493 261.410,4.853 259.738,4.995 258.685 C 5.137 257.631,5.489 256.191,5.778 255.485 C 6.066 254.778,6.430 253.306,6.588 252.214 C 6.746 251.122,7.128 249.867,7.437 249.425 C 7.747 248.983,8.000 248.110,8.000 247.485 C 8.000 246.860,8.331 245.505,8.735 244.474 C 9.835 241.668,10.807 238.788,11.241 237.048 C 11.453 236.195,11.891 235.119,12.214 234.659 C 12.536 234.199,12.800 233.501,12.800 233.110 C 12.800 232.718,13.160 231.725,13.600 230.904 C 14.040 230.084,14.400 229.167,14.400 228.868 C 14.400 228.568,14.653 227.846,14.962 227.262 C 15.271 226.678,16.011 225.120,16.607 223.800 C 17.202 222.480,17.850 221.130,18.046 220.800 C 18.242 220.470,18.592 219.750,18.825 219.200 C 19.363 217.929,21.134 214.387,21.626 213.600 C 21.832 213.270,22.185 212.550,22.410 212.000 C 22.635 211.450,23.252 210.280,23.782 209.400 C 24.312 208.520,25.027 207.260,25.372 206.600 C 25.716 205.940,26.354 204.860,26.788 204.200 C 27.222 203.540,27.988 202.301,28.489 201.446 C 28.990 200.591,29.596 199.557,29.836 199.149 C 30.075 198.740,30.570 198.075,30.936 197.671 C 31.301 197.267,31.600 196.808,31.600 196.651 C 31.600 196.494,32.320 195.412,33.200 194.246 C 34.080 193.081,34.800 192.009,34.800 191.864 C 34.800 191.719,35.084 191.285,35.432 190.900 C 35.779 190.515,36.858 189.120,37.830 187.800 C 38.801 186.480,39.822 185.138,40.098 184.817 C 40.374 184.497,41.451 183.174,42.490 181.878 C 46.349 177.069,48.765 174.436,55.404 167.800 C 62.659 160.549,63.048 160.192,68.598 155.656 C 70.579 154.037,72.260 152.552,72.333 152.356 C 72.407 152.160,72.652 152.000,72.878 152.000 C 73.104 152.000,74.124 151.318,75.144 150.484 C 76.925 149.029,81.093 146.111,84.405 144.000 C 85.814 143.102,86.845 142.414,90.484 139.937 C 91.080 139.532,91.714 139.200,91.893 139.200 C 92.072 139.200,93.114 138.615,94.209 137.900 C 95.304 137.185,96.650 136.376,97.200 136.103 C 97.750 135.830,98.470 135.444,98.800 135.246 C 99.130 135.048,99.850 134.688,100.400 134.446 C 100.950 134.204,101.670 133.833,102.000 133.622 C 103.263 132.814,105.470 132.066,107.186 131.863 C 108.168 131.748,109.178 131.371,109.430 131.027 C 109.682 130.682,110.429 130.400,111.090 130.400 C 111.751 130.400,112.750 130.040,113.309 129.600 C 113.869 129.160,114.615 128.800,114.967 128.800 C 115.319 128.800,115.916 128.440,116.293 128.000 C 116.670 127.560,117.300 127.200,117.693 127.200 C 118.086 127.200,118.716 126.840,119.093 126.400 C 119.470 125.960,119.964 125.600,120.192 125.600 C 120.420 125.600,121.452 125.150,122.485 124.600 C 123.518 124.050,124.749 123.600,125.220 123.600 C 125.691 123.600,126.554 123.344,127.138 123.032 C 128.644 122.226,131.784 121.223,134.700 120.617 C 136.076 120.331,137.426 119.912,137.700 119.686 C 137.975 119.460,139.097 119.141,140.193 118.978 C 141.290 118.815,142.730 118.460,143.393 118.190 C 144.057 117.920,145.500 117.577,146.600 117.428 C 147.700 117.279,149.410 116.911,150.400 116.609 C 151.390 116.308,153.425 115.942,154.922 115.796 C 156.419 115.651,158.219 115.361,158.922 115.151 C 159.625 114.942,163.229 114.510,166.931 114.190 C 170.633 113.871,173.873 113.472,174.131 113.305 C 174.389 113.137,204.840 112.904,241.800 112.786 C 303.911 112.588,309.149 112.520,310.964 111.886 C 312.044 111.509,313.394 111.194,313.964 111.186 C 314.534 111.179,315.720 110.825,316.600 110.400 C 317.480 109.975,318.516 109.621,318.901 109.614 C 319.287 109.606,320.275 109.240,321.096 108.800 C 321.916 108.360,322.824 108.000,323.113 108.000 C 323.401 108.000,325.086 107.145,326.858 106.100 C 328.629 105.055,330.645 103.865,331.339 103.455 C 332.033 103.045,332.690 102.580,332.800 102.421 C 332.910 102.262,333.294 101.967,333.653 101.766 C 334.698 101.181,338.743 97.574,340.753 95.435 C 341.769 94.354,342.915 93.189,343.300 92.846 C 343.685 92.503,344.000 92.052,344.000 91.845 C 344.000 91.637,344.269 91.182,344.598 90.834 C 345.850 89.507,347.200 87.669,347.200 87.291 C 347.200 87.075,347.458 86.684,347.774 86.422 C 348.089 86.160,348.930 84.833,349.642 83.473 C 350.354 82.113,351.174 80.550,351.466 80.000 C 351.757 79.450,351.996 78.707,351.998 78.349 C 351.999 77.991,352.256 77.486,352.569 77.226 C 352.882 76.966,353.258 76.038,353.406 75.163 C 353.554 74.288,353.911 73.084,354.200 72.486 C 354.488 71.889,354.847 70.590,354.998 69.600 C 355.148 68.610,355.525 67.029,355.836 66.086 C 356.537 63.957,356.641 48.678,355.966 46.926 C 355.728 46.307,355.275 44.465,354.961 42.834 C 354.646 41.202,354.232 39.672,354.040 39.434 C 353.849 39.195,353.561 38.370,353.400 37.600 C 353.239 36.830,352.882 35.750,352.607 35.200 C 352.331 34.650,351.517 32.940,350.799 31.400 C 350.080 29.860,348.976 27.826,348.346 26.880 C 347.716 25.934,347.200 25.060,347.200 24.938 C 347.200 24.815,346.795 24.215,346.300 23.603 C 345.805 22.992,344.861 21.796,344.203 20.946 C 342.700 19.004,336.074 12.402,334.824 11.600 C 334.309 11.270,333.419 10.632,332.844 10.183 C 330.180 8.098,323.627 4.400,322.597 4.400 C 322.336 4.400,321.707 4.040,321.200 3.600 C 320.693 3.160,319.720 2.797,319.039 2.794 C 317.669 2.787,316.659 2.304,316.866 1.755 C 316.940 1.560,315.933 1.305,314.630 1.190 C 313.285 1.070,312.189 0.767,312.097 0.490 C 311.885 -0.146,82.000 -0.236,82.000 0.400 M108.600 69.200 C 109.480 69.625,110.592 69.979,111.071 69.986 C 111.551 69.994,112.191 70.248,112.494 70.551 C 112.797 70.854,113.632 71.231,114.350 71.389 C 115.067 71.547,115.751 71.928,115.870 72.238 C 115.988 72.547,116.329 72.800,116.627 72.800 C 118.297 72.800,127.200 81.733,127.200 83.408 C 127.200 83.687,127.453 84.012,127.762 84.130 C 128.072 84.249,128.453 84.933,128.611 85.650 C 128.769 86.368,129.146 87.203,129.449 87.506 C 129.752 87.809,130.006 88.449,130.014 88.929 C 130.021 89.408,130.375 90.520,130.800 91.400 C 131.473 92.794,131.573 93.901,131.573 100.000 C 131.573 106.099,131.473 107.206,130.800 108.600 C 130.375 109.480,130.021 110.592,130.014 111.071 C 130.006 111.551,129.752 112.191,129.449 112.494 C 129.146 112.797,128.769 113.632,128.611 114.350 C 128.453 115.067,128.072 115.751,127.762 115.870 C 127.453 115.988,127.200 116.313,127.200 116.592 C 127.200 117.211,123.844 121.458,122.198 122.922 C 120.656 124.293,120.539 124.381,118.400 125.763 C 117.410 126.402,116.112 127.257,115.516 127.663 C 114.920 128.068,114.236 128.400,113.995 128.400 C 113.755 128.400,112.893 128.745,112.079 129.166 C 107.185 131.699,95.218 132.644,91.400 130.800 C 90.520 130.375,89.408 130.021,88.929 130.014 C 88.449 130.006,87.809 129.752,87.506 129.449 C 87.203 129.146,86.368 128.769,85.650 128.611 C 84.933 128.453,84.249 128.072,84.130 127.762 C 84.012 127.453,83.718 127.200,83.479 127.200 C 81.700 127.200,72.800 118.388,72.800 116.627 C 72.800 116.329,72.547 115.988,72.238 115.870 C 71.928 115.751,71.547 115.067,71.389 114.350 C 71.231 113.632,70.854 112.797,70.551 112.494 C 70.248 112.191,69.994 111.551,69.986 111.071 C 69.979 110.592,69.625 109.480,69.200 108.600 C 68.047 106.214,68.047 93.786,69.200 91.400 C 69.625 90.520,69.979 89.408,69.986 88.929 C 69.994 88.449,70.248 87.809,70.551 87.506 C 70.854 87.203,71.231 86.368,71.389 85.650 C 71.547 84.933,71.928 84.249,72.238 84.130 C 72.547 84.012,72.800 83.718,72.800 83.479 C 72.800 81.615,81.615 72.800,83.479 72.800 C 83.718 72.800,84.012 72.547,84.130 72.238 C 84.249 71.928,84.886 71.557,85.545 71.412 C 86.205 71.267,86.959 70.890,87.221 70.574 C 87.483 70.258,88.171 69.994,88.749 69.986 C 89.327 69.979,90.520 69.625,91.400 69.200 C 92.794 68.527,93.901 68.427,100.000 68.427 C 106.099 68.427,107.206 68.527,108.600 69.200 M251.666 149.561 C 250.712 149.727,249.812 150.047,249.666 150.271 C 249.520 150.496,248.346 150.786,247.059 150.915 C 245.771 151.045,244.421 151.407,244.059 151.721 C 243.696 152.035,242.690 152.400,241.823 152.533 C 240.956 152.666,240.092 153.050,239.903 153.387 C 239.715 153.724,239.057 154.000,238.442 154.000 C 237.827 154.000,236.998 154.360,236.600 154.800 C 236.202 155.240,235.551 155.600,235.154 155.600 C 234.756 155.600,234.109 155.935,233.716 156.344 C 233.322 156.753,232.505 157.206,231.900 157.351 C 231.295 157.496,230.800 157.882,230.800 158.208 C 230.800 158.533,230.468 158.800,230.062 158.800 C 229.656 158.800,228.998 159.160,228.600 159.600 C 228.202 160.040,227.635 160.400,227.341 160.400 C 227.047 160.400,226.582 160.760,226.307 161.200 C 226.032 161.640,225.657 162.000,225.472 162.000 C 225.288 162.000,224.424 162.720,223.553 163.600 C 222.682 164.480,221.796 165.200,221.585 165.200 C 221.373 165.200,221.200 165.357,221.200 165.550 C 221.200 165.742,220.165 166.993,218.900 168.330 C 215.232 172.206,213.659 174.308,213.524 175.518 C 213.481 175.893,213.346 173.260,213.224 169.667 C 213.032 164.069,212.900 163.061,212.300 162.623 C 211.915 162.342,211.600 161.800,211.600 161.418 C 211.600 161.037,211.257 160.635,210.837 160.526 C 210.417 160.416,209.984 159.983,209.874 159.563 C 209.765 159.143,209.409 158.800,209.084 158.800 C 208.759 158.800,208.399 158.440,208.284 158.000 C 208.169 157.560,207.763 157.200,207.382 157.200 C 207.000 157.200,206.458 156.885,206.177 156.500 C 205.316 155.322,170.715 155.217,169.131 156.388 C 168.527 156.834,167.847 157.200,167.620 157.200 C 167.393 157.200,166.982 157.560,166.707 158.000 C 166.432 158.440,165.993 158.800,165.731 158.800 C 165.468 158.800,165.140 159.160,165.000 159.600 C 164.860 160.040,164.488 160.400,164.173 160.400 C 163.858 160.400,163.600 160.732,163.600 161.138 C 163.600 161.544,163.240 162.202,162.800 162.600 C 162.121 163.214,162.009 163.785,162.061 166.362 L 162.122 169.400 162.396 167.000 C 162.887 162.706,165.653 158.979,169.809 157.013 L 171.950 156.000 187.542 156.000 L 203.134 156.000 205.267 157.050 C 210.790 159.768,212.800 163.533,212.800 171.160 C 212.800 174.190,212.967 176.456,213.200 176.600 C 213.420 176.736,213.600 176.688,213.600 176.493 C 213.600 175.797,218.108 170.142,221.126 167.053 C 224.766 163.326,230.616 158.750,233.600 157.294 C 234.150 157.025,234.870 156.633,235.200 156.422 C 236.564 155.550,242.867 152.800,243.508 152.798 C 243.888 152.796,244.719 152.524,245.353 152.194 C 245.987 151.863,247.247 151.485,248.153 151.353 C 249.059 151.221,250.790 150.818,252.000 150.457 C 255.174 149.509,271.668 149.527,274.600 150.481 C 275.700 150.839,277.573 151.247,278.763 151.388 C 279.952 151.529,281.428 151.904,282.043 152.222 C 282.657 152.540,283.577 152.800,284.086 152.800 C 284.595 152.800,285.684 153.160,286.504 153.600 C 287.325 154.040,288.223 154.403,288.499 154.408 C 292.524 154.468,305.776 164.318,311.255 171.321 C 312.321 172.685,313.338 173.980,313.514 174.200 C 313.690 174.420,314.417 175.590,315.130 176.800 C 315.843 178.010,316.594 179.270,316.798 179.600 C 317.002 179.930,317.642 181.280,318.220 182.600 C 318.797 183.920,319.512 185.540,319.809 186.200 C 320.974 188.793,322.512 194.243,323.195 198.200 C 323.625 200.686,324.753 208.185,324.941 209.800 C 325.017 210.460,325.107 209.818,325.140 208.373 C 325.173 206.928,324.926 204.821,324.590 203.691 C 324.255 202.561,323.918 200.004,323.842 198.008 C 323.742 195.362,323.528 194.183,323.052 193.658 C 322.677 193.243,322.400 192.254,322.400 191.330 C 322.400 190.232,322.147 189.495,321.600 189.000 C 321.096 188.544,320.800 187.768,320.800 186.901 C 320.800 186.132,320.448 185.078,320.000 184.509 C 319.560 183.950,319.200 183.077,319.200 182.570 C 319.200 182.062,319.002 181.525,318.759 181.375 C 318.517 181.225,318.054 180.539,317.732 179.851 C 316.564 177.361,315.870 176.194,315.384 175.905 C 315.112 175.743,314.773 175.145,314.630 174.577 C 314.487 174.009,313.747 172.921,312.985 172.159 C 312.223 171.397,311.600 170.613,311.600 170.416 C 311.600 169.695,303.640 162.000,302.893 162.000 C 302.652 162.000,302.340 161.640,302.200 161.200 C 302.060 160.760,301.688 160.400,301.373 160.400 C 301.058 160.400,300.440 160.040,300.000 159.600 C 299.560 159.160,298.840 158.800,298.400 158.800 C 297.960 158.800,297.600 158.533,297.600 158.208 C 297.600 157.882,297.111 157.493,296.513 157.343 C 295.916 157.193,295.072 156.739,294.638 156.335 C 294.204 155.931,293.596 155.600,293.288 155.600 C 292.979 155.600,292.269 155.240,291.709 154.800 C 291.150 154.360,290.176 154.000,289.546 154.000 C 288.916 154.000,288.040 153.640,287.600 153.200 C 287.091 152.691,286.267 152.400,285.331 152.400 C 284.514 152.400,283.532 152.100,283.117 151.724 C 282.644 151.297,281.457 150.986,279.885 150.879 C 278.362 150.774,277.113 150.455,276.658 150.054 C 275.842 149.335,255.301 148.930,251.666 149.561 M81.491 156.400 C 80.931 156.840,80.284 157.200,80.051 157.200 C 79.818 157.200,79.435 157.560,79.200 158.000 C 78.965 158.440,78.508 158.800,78.186 158.800 C 77.864 158.800,77.600 159.064,77.600 159.386 C 77.600 159.708,77.240 160.165,76.800 160.400 C 76.360 160.635,76.000 161.018,76.000 161.251 C 76.000 161.484,75.640 162.131,75.200 162.691 C 73.938 164.295,73.938 316.905,75.200 318.509 C 75.640 319.069,76.000 319.716,76.000 319.949 C 76.000 320.182,76.360 320.565,76.800 320.800 C 77.240 321.035,77.600 321.492,77.600 321.814 C 77.600 322.136,77.864 322.400,78.186 322.400 C 78.508 322.400,78.965 322.760,79.200 323.200 C 79.435 323.640,79.818 324.000,80.051 324.000 C 80.284 324.000,80.931 324.360,81.491 324.800 C 82.473 325.572,83.114 325.600,100.000 325.600 C 116.886 325.600,117.527 325.572,118.509 324.800 C 119.069 324.360,119.716 324.000,119.949 324.000 C 120.182 324.000,120.565 323.640,120.800 323.200 C 121.035 322.760,121.492 322.400,121.814 322.400 C 122.136 322.400,122.400 322.136,122.400 321.814 C 122.400 321.492,122.760 321.035,123.200 320.800 C 123.640 320.565,124.000 320.182,124.000 319.949 C 124.000 319.716,124.360 319.069,124.800 318.509 C 126.062 316.905,126.062 164.295,124.800 162.691 C 124.360 162.131,124.000 161.484,124.000 161.251 C 124.000 161.018,123.640 160.635,123.200 160.400 C 122.760 160.165,122.400 159.708,122.400 159.386 C 122.400 159.064,122.136 158.800,121.814 158.800 C 121.492 158.800,121.035 158.440,120.800 158.000 C 120.565 157.560,120.108 157.200,119.786 157.200 C 119.464 157.200,118.840 156.840,118.400 156.400 C 117.624 155.624,117.067 155.600,100.054 155.600 C 83.114 155.600,82.473 155.628,81.491 156.400 M117.719 157.014 C 120.497 158.286,122.876 160.639,124.187 163.409 L 125.200 165.550 125.200 240.600 L 125.200 315.650 124.187 317.791 C 122.897 320.518,120.518 322.897,117.791 324.187 L 115.650 325.200 100.000 325.200 L 84.350 325.200 82.209 324.187 C 79.482 322.897,77.103 320.518,75.813 317.791 L 74.800 315.650 74.800 240.600 L 74.800 165.550 75.826 163.382 C 79.036 156.597,80.757 156.070,99.852 156.032 L 115.503 156.000 117.719 157.014 M237.000 194.980 C 233.398 195.897,226.400 198.947,226.400 199.600 C 226.400 199.790,226.055 200.056,225.634 200.189 C 224.598 200.518,219.740 205.369,218.985 206.829 C 218.652 207.473,218.244 208.000,218.077 208.000 C 217.911 208.000,217.562 208.495,217.302 209.100 C 217.042 209.705,216.655 210.470,216.443 210.800 C 213.416 215.503,212.765 220.256,212.884 236.800 L 212.989 251.400 213.100 237.278 C 213.189 225.821,213.319 222.990,213.785 222.278 C 214.100 221.795,214.482 220.140,214.632 218.600 C 214.782 217.060,215.136 215.530,215.418 215.200 C 215.701 214.870,216.055 213.937,216.205 213.128 C 216.356 212.318,216.714 211.565,217.002 211.455 C 217.289 211.344,217.649 210.690,217.800 210.000 C 217.951 209.310,218.328 208.649,218.638 208.530 C 218.947 208.412,219.200 208.070,219.200 207.771 C 219.200 207.473,219.560 207.035,220.000 206.800 C 220.440 206.565,220.800 206.212,220.800 206.018 C 220.800 205.605,224.331 202.000,224.735 202.000 C 224.885 202.000,225.232 201.640,225.507 201.200 C 225.782 200.760,226.275 200.400,226.603 200.400 C 226.932 200.400,227.200 200.150,227.200 199.845 C 227.200 199.529,227.789 199.179,228.561 199.034 C 229.310 198.893,230.015 198.539,230.127 198.246 C 230.239 197.953,231.043 197.599,231.914 197.460 C 232.784 197.321,233.700 196.962,233.949 196.662 C 234.211 196.345,235.596 196.016,237.241 195.878 C 238.802 195.747,240.505 195.361,241.026 195.020 C 241.546 194.679,242.795 194.400,243.800 194.400 C 244.805 194.400,246.054 194.679,246.574 195.020 C 247.095 195.361,248.798 195.747,250.359 195.878 C 252.004 196.016,253.389 196.345,253.651 196.662 C 253.900 196.962,254.789 197.317,255.627 197.451 C 256.465 197.585,257.237 197.920,257.343 198.196 C 257.449 198.471,258.005 198.815,258.578 198.959 C 259.151 199.103,259.953 199.531,260.359 199.910 C 260.765 200.290,261.879 201.230,262.834 202.000 C 265.404 204.072,270.000 208.705,270.000 209.223 C 270.000 209.471,270.388 210.152,270.863 210.737 C 272.123 212.291,271.469 210.741,269.809 208.240 C 266.901 203.859,260.427 198.374,256.677 197.113 C 255.975 196.877,255.183 196.515,254.918 196.308 C 254.653 196.101,253.303 195.672,251.918 195.353 C 250.533 195.035,248.680 194.608,247.800 194.405 C 245.112 193.783,240.796 194.013,237.000 194.980 M271.616 212.411 C 271.607 212.747,271.862 213.396,272.182 213.853 C 272.502 214.310,272.940 215.780,273.156 217.120 C 273.372 218.460,273.740 219.914,273.974 220.352 C 274.267 220.898,274.431 235.785,274.498 267.874 L 274.597 314.600 274.705 268.200 C 274.770 240.088,274.664 221.169,274.435 220.200 C 273.406 215.841,272.886 214.098,272.287 213.000 C 271.927 212.340,271.625 212.075,271.616 212.411 M325.394 263.800 C 325.394 291.740,325.442 303.111,325.500 289.069 C 325.558 275.027,325.558 252.167,325.500 238.269 C 325.442 224.371,325.394 235.860,325.394 263.800 M162.061 314.838 C 162.009 317.415,162.121 317.986,162.800 318.600 C 163.240 318.998,163.600 319.656,163.600 320.062 C 163.600 320.468,163.858 320.800,164.173 320.800 C 164.488 320.800,164.860 321.160,165.000 321.600 C 165.140 322.040,165.500 322.400,165.800 322.400 C 166.100 322.400,166.460 322.760,166.600 323.200 C 166.740 323.640,167.128 324.000,167.464 324.000 C 167.799 324.000,168.531 324.360,169.091 324.800 C 171.074 326.360,205.200 325.921,205.200 324.336 C 205.200 323.846,204.706 323.945,203.824 324.613 C 203.171 325.106,200.533 325.200,187.356 325.200 L 171.666 325.200 169.685 324.205 C 165.612 322.159,162.876 318.405,162.396 314.200 L 162.122 311.800 162.061 314.838 M212.400 314.674 C 212.400 317.070,209.852 321.021,207.094 322.900 C 206.139 323.551,205.753 324.000,206.148 324.000 C 207.034 324.000,211.026 320.067,211.406 318.819 C 211.571 318.279,211.952 317.591,212.253 317.290 C 212.757 316.786,213.056 313.600,212.600 313.600 C 212.490 313.600,212.400 314.083,212.400 314.674 M274.816 315.667 C 274.741 318.803,281.219 325.277,284.333 325.179 C 284.700 325.167,284.034 324.762,282.854 324.279 C 280.080 323.143,277.007 320.070,275.776 317.200 C 275.257 315.990,274.825 315.300,274.816 315.667 M324.200 317.215 C 323.168 319.914,320.112 322.975,317.200 324.224 C 315.990 324.743,315.300 325.175,315.667 325.184 C 318.797 325.259,325.660 318.368,325.117 315.695 C 325.052 315.379,324.640 316.063,324.200 317.215 M292.700 325.499 C 296.715 325.565,303.285 325.565,307.300 325.499 C 311.315 325.434,308.030 325.381,300.000 325.381 C 291.970 325.381,288.685 325.434,292.700 325.499 " stroke="none" fill="#437ccb" fill-rule="evenodd"></path><path id="path2" d="M80.800 0.400 C 80.800 0.620,81.070 0.800,81.400 0.800 C 81.730 0.800,82.000 0.620,82.000 0.400 C 82.000 0.180,81.730 0.000,81.400 0.000 C 81.070 0.000,80.800 0.180,80.800 0.400 M312.000 0.392 C 312.000 0.845,313.120 1.141,315.400 1.293 C 316.280 1.352,316.940 1.560,316.866 1.755 C 316.659 2.304,317.669 2.787,319.039 2.794 C 319.720 2.797,320.693 3.160,321.200 3.600 C 321.707 4.040,322.336 4.400,322.597 4.400 C 323.018 4.400,326.940 6.321,328.731 7.405 C 330.232 8.313,331.859 9.412,332.844 10.183 C 333.419 10.632,334.309 11.270,334.824 11.600 C 336.074 12.402,342.700 19.004,344.203 20.946 C 344.861 21.796,345.805 22.992,346.300 23.603 C 346.795 24.215,347.200 24.815,347.200 24.938 C 347.200 25.060,347.716 25.934,348.346 26.880 C 348.976 27.826,350.080 29.860,350.799 31.400 C 351.517 32.940,352.331 34.650,352.607 35.200 C 352.882 35.750,353.239 36.830,353.400 37.600 C 353.561 38.370,353.849 39.195,354.040 39.434 C 354.232 39.672,354.646 41.202,354.961 42.834 C 355.275 44.465,355.728 46.307,355.966 46.926 C 356.641 48.678,356.537 63.957,355.836 66.086 C 355.525 67.029,355.148 68.610,354.998 69.600 C 354.847 70.590,354.488 71.889,354.200 72.486 C 353.911 73.084,353.554 74.288,353.406 75.163 C 353.258 76.038,352.882 76.966,352.569 77.226 C 352.256 77.486,351.999 77.991,351.998 78.349 C 351.996 78.707,351.757 79.450,351.466 80.000 C 351.174 80.550,350.354 82.113,349.642 83.473 C 348.930 84.833,348.089 86.160,347.774 86.422 C 347.458 86.684,347.200 87.075,347.200 87.291 C 347.200 87.669,345.850 89.507,344.598 90.834 C 344.269 91.182,344.000 91.637,344.000 91.845 C 344.000 92.052,343.685 92.503,343.300 92.846 C 342.915 93.189,341.769 94.354,340.753 95.435 C 338.743 97.574,334.698 101.181,333.653 101.766 C 333.294 101.967,332.910 102.262,332.800 102.421 C 332.690 102.580,332.033 103.045,331.339 103.455 C 330.645 103.865,328.629 105.055,326.858 106.100 C 325.086 107.145,323.401 108.000,323.113 108.000 C 322.824 108.000,321.916 108.360,321.096 108.800 C 320.275 109.240,319.287 109.606,318.901 109.614 C 318.516 109.621,317.480 109.975,316.600 110.400 C 315.720 110.825,314.534 111.179,313.964 111.186 C 313.394 111.194,312.044 111.509,310.964 111.886 C 309.149 112.520,303.911 112.588,241.800 112.786 C 204.840 112.904,174.389 113.137,174.131 113.305 C 173.873 113.472,170.633 113.871,166.931 114.190 C 163.229 114.510,159.625 114.942,158.922 115.151 C 158.219 115.361,156.419 115.651,154.922 115.796 C 153.425 115.942,151.390 116.308,150.400 116.609 C 149.410 116.911,147.700 117.279,146.600 117.428 C 145.500 117.577,144.057 117.920,143.393 118.190 C 142.730 118.460,141.290 118.815,140.193 118.978 C 139.097 119.141,137.975 119.460,137.700 119.686 C 137.426 119.912,136.076 120.331,134.700 120.617 C 131.784 121.223,128.644 122.226,127.138 123.032 C 126.554 123.344,125.691 123.600,125.220 123.600 C 124.749 123.600,123.518 124.050,122.485 124.600 C 121.452 125.150,120.420 125.600,120.192 125.600 C 119.964 125.600,119.470 125.960,119.093 126.400 C 118.716 126.840,118.086 127.200,117.693 127.200 C 117.300 127.200,116.670 127.560,116.293 128.000 C 115.916 128.440,115.319 128.800,114.967 128.800 C 114.615 128.800,113.869 129.160,113.309 129.600 C 112.750 130.040,111.751 130.400,111.090 130.400 C 110.429 130.400,109.682 130.682,109.430 131.027 C 109.178 131.371,108.168 131.748,107.186 131.863 C 105.470 132.066,103.263 132.814,102.000 133.622 C 101.670 133.833,100.950 134.204,100.400 134.446 C 99.850 134.688,99.130 135.048,98.800 135.246 C 98.470 135.444,97.750 135.830,97.200 136.103 C 96.650 136.376,95.304 137.185,94.209 137.900 C 93.114 138.615,92.072 139.200,91.893 139.200 C 91.714 139.200,91.080 139.532,90.484 139.937 C 86.845 142.414,85.814 143.102,84.405 144.000 C 81.093 146.111,76.925 149.029,75.144 150.484 C 74.124 151.318,73.104 152.000,72.878 152.000 C 72.652 152.000,72.407 152.160,72.333 152.356 C 72.260 152.552,70.579 154.037,68.598 155.656 C 63.048 160.192,62.659 160.549,55.404 167.800 C 48.765 174.436,46.349 177.069,42.490 181.878 C 41.451 183.174,40.374 184.497,40.098 184.817 C 39.822 185.138,38.801 186.480,37.830 187.800 C 36.858 189.120,35.779 190.515,35.432 190.900 C 35.084 191.285,34.800 191.719,34.800 191.864 C 34.800 192.009,34.080 193.081,33.200 194.246 C 32.320 195.412,31.600 196.494,31.600 196.651 C 31.600 196.808,31.301 197.267,30.936 197.671 C 30.570 198.075,30.075 198.740,29.836 199.149 C 29.596 199.557,28.990 200.591,28.489 201.446 C 27.988 202.301,27.222 203.540,26.788 204.200 C 26.354 204.860,25.716 205.940,25.372 206.600 C 25.027 207.260,24.312 208.520,23.782 209.400 C 23.252 210.280,22.635 211.450,22.410 212.000 C 22.185 212.550,21.832 213.270,21.626 213.600 C 21.134 214.387,19.363 217.929,18.825 219.200 C 18.592 219.750,18.242 220.470,18.046 220.800 C 17.850 221.130,17.202 222.480,16.607 223.800 C 16.011 225.120,15.271 226.678,14.962 227.262 C 14.653 227.846,14.400 228.568,14.400 228.868 C 14.400 229.167,14.040 230.084,13.600 230.904 C 13.160 231.725,12.800 232.718,12.800 233.110 C 12.800 233.501,12.536 234.199,12.214 234.659 C 11.891 235.119,11.453 236.195,11.241 237.048 C 10.807 238.788,9.835 241.668,8.735 244.474 C 8.331 245.505,8.000 246.860,8.000 247.485 C 8.000 248.110,7.747 248.983,7.437 249.425 C 7.128 249.867,6.746 251.122,6.588 252.214 C 6.430 253.306,6.066 254.778,5.778 255.485 C 5.489 256.191,5.137 257.631,4.995 258.685 C 4.853 259.738,4.493 261.410,4.195 262.400 C 3.898 263.390,3.537 265.370,3.394 266.800 C 3.250 268.230,2.893 270.390,2.600 271.600 C 2.307 272.810,1.871 276.410,1.631 279.600 C 1.168 285.747,0.923 287.200,0.353 287.200 C 0.155 287.200,0.000 294.124,0.000 303.000 C 0.000 313.267,0.140 318.800,0.400 318.800 C 0.635 318.800,0.800 320.185,0.800 322.156 C 0.800 325.106,0.885 325.504,1.500 325.456 C 2.096 325.408,2.216 325.816,2.309 328.200 C 2.395 330.414,2.584 331.139,3.211 331.665 C 3.732 332.103,4.025 332.884,4.066 333.947 C 4.136 335.717,4.582 336.752,5.067 336.267 C 5.237 336.096,5.112 335.789,4.788 335.584 C 4.295 335.272,4.313 335.211,4.900 335.206 C 5.521 335.201,5.926 337.378,5.655 339.276 C 5.634 339.427,5.973 339.664,6.408 339.803 C 6.995 339.989,7.200 340.410,7.200 341.427 C 7.200 342.376,7.384 342.800,7.795 342.800 C 8.180 342.800,8.481 343.365,8.646 344.400 C 8.834 345.576,9.092 346.000,9.619 346.000 C 10.192 346.000,10.322 346.299,10.268 347.494 C 10.218 348.582,10.363 348.989,10.800 348.994 C 11.206 348.998,11.441 349.498,11.527 350.544 C 11.612 351.584,11.874 352.147,12.327 352.265 C 12.697 352.362,13.208 352.882,13.463 353.421 C 13.717 353.960,13.764 354.301,13.567 354.180 C 13.370 354.058,13.310 354.220,13.432 354.540 C 13.555 354.860,14.004 355.212,14.429 355.324 C 14.918 355.451,15.118 355.747,14.973 356.127 C 14.826 356.509,15.044 356.824,15.571 356.991 C 16.358 357.241,16.563 357.631,16.441 358.652 C 16.411 358.900,16.750 359.198,17.194 359.314 C 17.741 359.457,18.000 359.859,18.000 360.563 C 18.000 361.312,18.209 361.600,18.753 361.600 C 19.170 361.600,19.600 361.957,19.716 362.400 C 19.831 362.840,20.212 363.200,20.563 363.200 C 20.913 363.200,21.200 363.442,21.200 363.738 C 21.200 364.034,21.560 364.602,22.000 365.000 C 22.440 365.398,22.800 366.050,22.800 366.448 C 22.800 367.170,24.271 368.266,24.968 368.062 C 25.170 368.003,25.109 368.228,24.832 368.561 C 24.409 369.071,24.493 369.208,25.362 369.426 C 25.930 369.569,26.291 369.853,26.164 370.058 C 25.861 370.548,28.226 372.955,28.715 372.653 C 29.187 372.361,30.213 373.497,30.589 374.729 C 30.750 375.257,31.094 375.573,31.386 375.461 C 31.669 375.352,32.099 375.699,32.342 376.232 C 32.584 376.764,32.967 377.200,33.191 377.200 C 33.416 377.200,33.960 377.560,34.400 378.000 C 34.840 378.440,35.560 378.800,36.000 378.800 C 36.716 378.800,36.987 379.216,36.847 380.100 C 36.821 380.265,36.935 380.379,37.100 380.353 C 38.004 380.210,38.815 380.452,38.600 380.800 C 38.464 381.020,38.588 381.203,38.876 381.206 C 39.262 381.211,39.241 381.325,38.800 381.641 C 38.314 381.988,38.364 382.034,39.065 381.881 C 39.675 381.749,39.989 381.916,40.128 382.448 C 40.243 382.887,40.557 383.115,40.877 382.992 C 41.451 382.772,43.200 384.145,43.200 384.816 C 43.200 385.027,43.541 385.200,43.957 385.200 C 44.374 385.200,44.837 385.515,44.986 385.900 C 45.237 386.549,45.302 386.542,45.879 385.800 C 46.490 385.012,46.497 385.014,46.287 385.900 C 46.124 386.593,46.250 386.800,46.837 386.800 C 47.257 386.800,47.600 387.051,47.600 387.357 C 47.600 387.995,48.449 388.400,49.786 388.400 C 50.381 388.400,50.783 388.693,50.923 389.229 C 51.101 389.908,51.370 390.021,52.415 389.857 C 53.435 389.696,53.730 389.810,53.891 390.428 C 54.022 390.926,54.441 391.200,55.073 391.200 C 56.331 391.200,57.693 391.926,57.381 392.430 C 57.249 392.644,57.289 392.794,57.470 392.763 C 58.802 392.531,59.975 392.891,60.200 393.600 C 60.416 394.281,60.805 394.400,62.814 394.400 C 64.804 394.400,65.137 394.500,64.932 395.034 C 64.740 395.533,64.620 395.556,64.366 395.145 C 64.189 394.858,63.904 394.763,63.733 394.933 C 63.246 395.421,64.286 395.864,66.081 395.935 C 67.234 395.980,67.895 396.243,68.298 396.819 C 68.614 397.269,69.171 397.609,69.536 397.573 C 72.596 397.273,74.749 397.625,74.600 398.400 C 74.455 399.154,74.661 399.200,78.223 399.200 C 80.474 399.200,82.000 399.362,82.000 399.600 C 82.000 399.866,121.600 400.000,200.000 400.000 C 278.400 400.000,318.000 399.866,318.000 399.600 C 318.000 399.361,319.533 399.200,321.800 399.200 C 325.333 399.200,325.600 399.144,325.600 398.400 C 325.600 397.670,325.867 397.600,328.637 397.600 C 331.338 397.600,331.698 397.511,331.884 396.800 C 332.058 396.135,332.430 396.000,334.084 396.000 C 335.738 396.000,336.110 395.865,336.284 395.200 C 336.449 394.569,336.830 394.400,338.084 394.400 C 339.338 394.400,339.719 394.231,339.884 393.600 C 340.041 392.999,340.430 392.800,341.447 392.800 C 342.346 392.800,342.800 392.610,342.800 392.235 C 342.800 391.888,343.416 391.566,344.400 391.400 C 345.384 391.234,346.000 390.912,346.000 390.565 C 346.000 390.183,346.466 390.000,347.437 390.000 C 348.538 390.000,348.924 389.813,349.084 389.200 C 349.243 388.594,349.630 388.400,350.684 388.400 C 351.738 388.400,352.125 388.206,352.284 387.600 C 352.399 387.160,352.818 386.800,353.214 386.800 C 354.362 386.800,355.200 386.360,355.200 385.757 C 355.200 385.451,355.577 385.200,356.037 385.200 C 356.538 385.200,356.959 384.879,357.084 384.400 C 357.234 383.826,357.630 383.600,358.484 383.600 C 359.338 383.600,359.734 383.374,359.884 382.800 C 360.000 382.357,360.430 382.000,360.847 382.000 C 361.333 382.000,361.600 381.717,361.600 381.200 C 361.600 380.667,361.867 380.400,362.400 380.400 C 362.933 380.400,363.200 380.133,363.200 379.600 C 363.200 379.013,363.467 378.800,364.200 378.800 C 364.750 378.800,365.200 378.609,365.200 378.376 C 365.200 378.143,365.378 378.063,365.595 378.197 C 365.822 378.337,365.889 378.177,365.753 377.821 C 365.574 377.354,365.783 377.200,366.595 377.200 C 367.338 377.200,367.740 376.951,367.884 376.400 C 368.000 375.957,368.430 375.600,368.847 375.600 C 369.333 375.600,369.600 375.317,369.600 374.800 C 369.600 374.267,369.867 374.000,370.400 374.000 C 370.918 374.000,371.200 373.733,371.200 373.244 C 371.200 372.770,371.461 372.510,371.900 372.544 C 372.339 372.579,372.579 372.339,372.544 371.900 C 372.510 371.461,372.770 371.200,373.244 371.200 C 373.733 371.200,374.000 370.918,374.000 370.400 C 374.000 369.867,374.267 369.600,374.800 369.600 C 375.317 369.600,375.600 369.333,375.600 368.847 C 375.600 368.430,375.957 368.000,376.400 367.884 C 376.840 367.769,377.200 367.388,377.200 367.037 C 377.200 366.687,377.560 366.040,378.000 365.600 C 378.440 365.160,378.800 364.440,378.800 364.000 C 378.800 363.467,379.067 363.200,379.600 363.200 C 380.133 363.200,380.400 362.933,380.400 362.400 C 380.400 361.867,380.667 361.600,381.200 361.600 C 381.777 361.600,382.000 361.333,382.000 360.644 C 382.000 359.980,382.213 359.706,382.700 359.744 C 383.208 359.785,383.434 359.454,383.522 358.541 C 383.605 357.693,383.899 357.215,384.422 357.078 C 384.880 356.959,385.200 356.530,385.200 356.037 C 385.200 355.577,385.451 355.200,385.757 355.200 C 386.360 355.200,386.800 354.362,386.800 353.214 C 386.800 352.818,387.171 352.396,387.625 352.278 C 388.078 352.159,388.417 351.823,388.377 351.531 C 388.184 350.108,388.463 349.277,389.200 349.084 C 389.785 348.931,390.000 348.538,390.000 347.625 C 390.000 346.912,390.245 346.281,390.570 346.156 C 390.884 346.036,391.260 345.231,391.405 344.369 C 391.567 343.409,391.890 342.800,392.235 342.800 C 392.625 342.800,392.800 342.317,392.800 341.244 C 392.800 340.008,392.944 339.700,393.500 339.744 C 394.067 339.789,394.238 339.382,394.400 337.600 C 394.532 336.147,394.793 335.358,395.168 335.277 C 395.658 335.172,395.658 335.249,395.168 335.842 C 394.674 336.440,394.678 336.504,395.200 336.334 C 395.605 336.201,395.839 335.479,395.919 334.110 C 396.015 332.494,396.197 332.042,396.819 331.879 C 397.507 331.699,397.600 331.313,397.600 328.637 C 397.600 325.867,397.670 325.600,398.400 325.600 C 399.137 325.600,399.200 325.333,399.200 322.200 C 399.200 320.200,399.365 318.800,399.600 318.800 C 399.866 318.800,400.000 278.933,400.000 200.000 C 400.000 121.067,399.866 81.200,399.600 81.200 C 399.365 81.200,399.200 79.804,399.200 77.813 C 399.200 75.075,399.093 74.466,398.640 74.640 C 397.812 74.958,397.618 74.381,397.554 71.418 C 397.507 69.277,397.346 68.648,396.748 68.275 C 396.317 68.006,396.000 67.349,396.000 66.727 C 396.000 66.133,395.801 65.524,395.557 65.374 C 395.242 65.179,395.257 65.012,395.609 64.795 C 396.210 64.423,395.774 63.600,394.976 63.600 C 394.484 63.600,394.151 62.083,394.345 60.724 C 394.366 60.573,394.027 60.336,393.592 60.197 C 393.005 60.011,392.800 59.590,392.800 58.573 C 392.800 57.666,392.611 57.200,392.243 57.200 C 391.598 57.200,391.200 56.348,391.200 54.967 C 391.200 54.268,390.979 54.000,390.402 54.000 C 389.712 54.000,389.635 53.808,389.832 52.570 C 390.024 51.358,389.933 51.107,389.229 50.924 C 388.385 50.703,388.320 50.562,388.243 48.800 C 388.213 48.107,387.985 47.817,387.500 47.856 C 386.829 47.909,386.635 47.557,386.765 46.520 C 386.800 46.243,386.484 46.107,386.013 46.198 C 385.506 46.295,385.200 46.142,385.200 45.790 C 385.200 45.435,385.460 45.307,385.900 45.445 C 386.567 45.655,386.567 45.638,385.900 45.089 C 385.515 44.771,385.200 44.229,385.200 43.883 C 385.200 43.537,384.840 43.140,384.400 43.000 C 383.951 42.858,383.600 42.395,383.600 41.946 C 383.600 41.328,383.418 41.204,382.800 41.400 C 382.237 41.579,382.000 41.472,382.000 41.040 C 382.000 40.631,382.223 40.511,382.666 40.681 C 383.113 40.852,383.236 40.783,383.042 40.468 C 382.883 40.211,382.510 40.000,382.214 40.000 C 381.863 40.000,381.744 39.686,381.872 39.100 C 382.031 38.377,381.985 38.318,381.641 38.800 C 381.325 39.241,381.211 39.262,381.206 38.876 C 381.203 38.588,381.020 38.464,380.800 38.600 C 380.580 38.736,380.400 38.460,380.400 37.986 C 380.400 37.462,380.087 37.043,379.600 36.916 C 379.157 36.800,378.800 36.370,378.800 35.953 C 378.800 35.539,378.396 34.796,377.902 34.302 C 377.408 33.808,377.050 33.208,377.105 32.968 C 377.160 32.727,376.753 32.325,376.200 32.073 C 375.647 31.821,375.241 31.391,375.298 31.117 C 375.354 30.843,374.992 30.557,374.494 30.481 C 373.996 30.405,373.696 30.168,373.829 29.953 C 374.102 29.512,370.747 26.000,370.053 26.000 C 369.804 26.000,369.600 25.713,369.600 25.363 C 369.600 25.012,369.246 24.633,368.813 24.519 C 368.381 24.406,367.918 23.973,367.786 23.557 C 367.654 23.141,367.288 22.800,366.973 22.800 C 366.658 22.800,366.040 22.440,365.600 22.000 C 365.160 21.560,364.440 21.200,364.000 21.200 C 363.467 21.200,363.200 20.933,363.200 20.400 C 363.200 19.867,362.933 19.600,362.400 19.600 C 361.867 19.600,361.600 19.333,361.600 18.800 C 361.600 18.063,360.724 17.730,359.432 17.975 C 359.230 18.014,359.273 17.793,359.529 17.486 C 360.130 16.762,359.741 16.400,358.360 16.400 C 357.592 16.400,357.173 16.146,356.991 15.571 C 356.824 15.044,356.509 14.826,356.127 14.973 C 355.747 15.118,355.451 14.918,355.324 14.429 C 355.212 14.004,354.860 13.555,354.540 13.432 C 354.220 13.310,354.064 13.380,354.192 13.588 C 354.321 13.796,353.925 13.706,353.313 13.389 C 352.701 13.071,352.200 12.584,352.200 12.306 C 352.200 12.016,351.517 11.715,350.600 11.600 C 349.538 11.467,348.997 11.198,348.992 10.800 C 348.987 10.369,348.571 10.212,347.511 10.244 C 346.701 10.268,346.050 10.178,346.066 10.044 C 346.164 9.209,345.912 8.800,345.300 8.799 C 344.915 8.798,344.011 8.438,343.290 7.999 C 342.570 7.559,341.556 7.200,341.037 7.200 C 340.430 7.200,340.019 6.915,339.884 6.400 C 339.718 5.764,339.338 5.600,338.037 5.600 C 336.878 5.600,336.400 5.432,336.400 5.024 C 336.400 4.189,335.570 3.803,335.161 4.449 C 334.909 4.848,334.811 4.862,334.806 4.500 C 334.802 4.204,334.269 4.000,333.496 4.000 C 332.635 4.000,332.026 3.734,331.704 3.218 C 331.305 2.579,330.682 2.414,328.308 2.318 C 325.824 2.217,325.408 2.098,325.456 1.500 C 325.504 0.885,325.106 0.800,322.156 0.800 C 320.185 0.800,318.800 0.635,318.800 0.400 C 318.800 0.165,317.400 0.000,315.400 0.000 C 313.444 0.000,312.000 0.167,312.000 0.392 M40.560 17.041 C 40.667 17.320,40.540 17.636,40.278 17.743 C 39.913 17.891,39.915 17.944,40.286 17.968 C 40.553 17.986,40.948 17.670,41.164 17.267 C 41.463 16.708,41.415 16.533,40.961 16.533 C 40.634 16.533,40.453 16.762,40.560 17.041 M32.200 23.200 C 31.874 23.728,32.352 24.477,32.828 24.183 C 33.313 23.883,33.310 22.800,32.824 22.800 C 32.617 22.800,32.336 22.980,32.200 23.200 M28.800 26.600 C 28.800 26.930,28.513 27.200,28.163 27.200 C 27.812 27.200,27.433 27.550,27.322 27.979 C 27.210 28.407,26.821 28.836,26.459 28.932 C 25.910 29.078,25.924 29.115,26.537 29.154 C 26.963 29.180,27.363 28.862,27.484 28.400 C 27.600 27.957,28.030 27.600,28.447 27.600 C 28.861 27.600,29.200 27.401,29.200 27.157 C 29.200 26.914,29.461 26.814,29.780 26.937 C 30.167 27.085,30.285 26.967,30.137 26.580 C 29.844 25.816,28.800 25.832,28.800 26.600 M22.984 32.427 C 22.839 32.661,22.816 32.949,22.933 33.067 C 23.220 33.353,24.000 32.848,24.000 32.376 C 24.000 31.865,23.309 31.899,22.984 32.427 M0.000 81.600 C 0.000 82.040,0.180 82.400,0.400 82.400 C 0.620 82.400,0.800 82.040,0.800 81.600 C 0.800 81.160,0.620 80.800,0.400 80.800 C 0.180 80.800,0.000 81.160,0.000 81.600 M276.658 150.054 C 277.113 150.455,278.362 150.774,279.885 150.879 C 281.457 150.986,282.644 151.297,283.117 151.724 C 283.532 152.100,284.514 152.400,285.331 152.400 C 286.267 152.400,287.091 152.691,287.600 153.200 C 288.040 153.640,288.916 154.000,289.546 154.000 C 290.176 154.000,291.150 154.360,291.709 154.800 C 292.269 155.240,292.979 155.600,293.288 155.600 C 293.596 155.600,294.204 155.931,294.638 156.335 C 295.072 156.739,295.916 157.193,296.513 157.343 C 297.111 157.493,297.600 157.882,297.600 158.208 C 297.600 158.533,297.960 158.800,298.400 158.800 C 298.840 158.800,299.560 159.160,300.000 159.600 C 300.440 160.040,301.058 160.400,301.373 160.400 C 301.688 160.400,302.060 160.760,302.200 161.200 C 302.340 161.640,302.652 162.000,302.893 162.000 C 303.640 162.000,311.600 169.695,311.600 170.416 C 311.600 170.613,312.223 171.397,312.985 172.159 C 313.747 172.921,314.487 174.009,314.630 174.577 C 314.773 175.145,315.112 175.743,315.384 175.905 C 315.870 176.194,316.564 177.361,317.732 179.851 C 318.054 180.539,318.517 181.225,318.759 181.375 C 319.002 181.525,319.200 182.062,319.200 182.570 C 319.200 183.077,319.560 183.950,320.000 184.509 C 320.448 185.078,320.800 186.132,320.800 186.901 C 320.800 187.768,321.096 188.544,321.600 189.000 C 322.147 189.495,322.400 190.232,322.400 191.330 C 322.400 192.254,322.677 193.243,323.052 193.658 C 323.527 194.182,323.742 195.360,323.842 197.991 C 323.917 199.978,324.299 202.638,324.689 203.902 C 325.356 206.056,325.400 209.635,325.400 261.200 L 325.400 316.200 324.325 318.208 C 322.957 320.764,320.764 322.957,318.208 324.325 L 316.200 325.400 300.000 325.400 L 283.800 325.400 281.792 324.325 C 279.236 322.957,277.043 320.764,275.675 318.208 L 274.600 316.200 274.400 268.400 C 274.290 242.110,274.056 220.378,273.880 220.106 C 273.704 219.834,273.392 218.574,273.187 217.306 C 272.981 216.038,272.558 214.460,272.245 213.800 C 271.933 213.140,271.471 212.150,271.219 211.600 C 270.967 211.050,270.471 210.060,270.117 209.400 C 269.429 208.120,265.673 204.307,262.825 202.000 C 261.875 201.230,260.765 200.290,260.359 199.910 C 259.953 199.531,259.151 199.103,258.578 198.959 C 258.005 198.815,257.449 198.471,257.343 198.196 C 257.237 197.920,256.465 197.585,255.627 197.451 C 254.789 197.317,253.900 196.962,253.651 196.662 C 253.389 196.345,252.004 196.016,250.359 195.878 C 248.798 195.747,247.095 195.361,246.574 195.020 C 245.356 194.222,242.244 194.222,241.026 195.020 C 240.505 195.361,238.802 195.747,237.241 195.878 C 235.596 196.016,234.211 196.345,233.949 196.662 C 233.700 196.962,232.784 197.321,231.914 197.460 C 231.043 197.599,230.239 197.953,230.127 198.246 C 230.015 198.539,229.310 198.893,228.561 199.034 C 227.789 199.179,227.200 199.529,227.200 199.845 C 227.200 200.150,226.932 200.400,226.603 200.400 C 226.275 200.400,225.782 200.760,225.507 201.200 C 225.232 201.640,224.885 202.000,224.735 202.000 C 224.331 202.000,220.800 205.605,220.800 206.018 C 220.800 206.212,220.440 206.565,220.000 206.800 C 219.560 207.035,219.200 207.473,219.200 207.771 C 219.200 208.070,218.947 208.412,218.638 208.530 C 218.328 208.649,217.951 209.310,217.800 210.000 C 217.649 210.690,217.289 211.344,217.002 211.455 C 216.714 211.565,216.356 212.318,216.205 213.128 C 216.055 213.937,215.701 214.870,215.418 215.200 C 215.136 215.530,214.782 217.060,214.632 218.600 C 214.482 220.140,214.091 221.809,213.765 222.308 C 213.252 223.093,213.136 229.595,212.920 270.045 C 212.728 305.737,212.554 316.989,212.187 317.356 C 211.922 317.621,211.571 318.279,211.406 318.819 C 210.995 320.167,207.002 324.000,206.008 324.000 C 205.564 324.000,205.200 324.151,205.200 324.336 C 205.200 325.921,171.074 326.360,169.091 324.800 C 168.531 324.360,167.799 324.000,167.464 324.000 C 167.128 324.000,166.740 323.640,166.600 323.200 C 166.460 322.760,166.100 322.400,165.800 322.400 C 165.500 322.400,165.140 322.040,165.000 321.600 C 164.860 321.160,164.488 320.800,164.173 320.800 C 163.858 320.800,163.600 320.468,163.600 320.062 C 163.600 319.656,163.240 318.998,162.800 318.600 C 161.537 317.457,161.537 163.743,162.800 162.600 C 163.240 162.202,163.600 161.544,163.600 161.138 C 163.600 160.732,163.858 160.400,164.173 160.400 C 164.488 160.400,164.860 160.040,165.000 159.600 C 165.140 159.160,165.468 158.800,165.731 158.800 C 165.993 158.800,166.432 158.440,166.707 158.000 C 166.982 157.560,167.393 157.200,167.620 157.200 C 167.847 157.200,168.527 156.834,169.131 156.388 C 170.715 155.217,205.316 155.322,206.177 156.500 C 206.458 156.885,207.000 157.200,207.382 157.200 C 207.763 157.200,208.169 157.560,208.284 158.000 C 208.399 158.440,208.759 158.800,209.084 158.800 C 209.409 158.800,209.765 159.143,209.874 159.563 C 209.984 159.983,210.417 160.416,210.837 160.526 C 211.257 160.635,211.600 161.037,211.600 161.418 C 211.600 161.800,211.915 162.342,212.300 162.623 C 212.900 163.061,213.032 164.069,213.224 169.667 C 213.346 173.260,213.481 175.893,213.524 175.518 C 213.659 174.308,215.232 172.206,218.900 168.330 C 220.165 166.993,221.200 165.742,221.200 165.550 C 221.200 165.357,221.373 165.200,221.585 165.200 C 221.796 165.200,222.682 164.480,223.553 163.600 C 224.424 162.720,225.288 162.000,225.472 162.000 C 225.657 162.000,226.032 161.640,226.307 161.200 C 226.582 160.760,227.047 160.400,227.341 160.400 C 227.635 160.400,228.202 160.040,228.600 159.600 C 228.998 159.160,229.656 158.800,230.062 158.800 C 230.468 158.800,230.800 158.533,230.800 158.208 C 230.800 157.882,231.295 157.496,231.900 157.351 C 232.505 157.206,233.322 156.753,233.716 156.344 C 234.109 155.935,234.756 155.600,235.154 155.600 C 235.551 155.600,236.202 155.240,236.600 154.800 C 236.998 154.360,237.827 154.000,238.442 154.000 C 239.057 154.000,239.715 153.724,239.903 153.387 C 240.092 153.050,240.956 152.666,241.823 152.533 C 242.690 152.400,243.696 152.035,244.059 151.721 C 244.421 151.407,245.771 151.045,247.059 150.915 C 248.346 150.786,249.520 150.496,249.666 150.271 C 250.476 149.028,275.269 148.829,276.658 150.054 M118.400 156.400 C 118.840 156.840,119.464 157.200,119.786 157.200 C 120.108 157.200,120.565 157.560,120.800 158.000 C 121.035 158.440,121.492 158.800,121.814 158.800 C 122.136 158.800,122.400 159.064,122.400 159.386 C 122.400 159.708,122.760 160.165,123.200 160.400 C 123.640 160.635,124.000 161.018,124.000 161.251 C 124.000 161.484,124.360 162.131,124.800 162.691 C 125.594 163.700,125.600 164.314,125.600 240.600 C 125.600 316.886,125.594 317.500,124.800 318.509 C 124.360 319.069,124.000 319.716,124.000 319.949 C 124.000 320.182,123.640 320.565,123.200 320.800 C 122.760 321.035,122.400 321.492,122.400 321.814 C 122.400 322.136,122.136 322.400,121.814 322.400 C 121.492 322.400,121.035 322.760,120.800 323.200 C 120.565 323.640,120.182 324.000,119.949 324.000 C 119.716 324.000,119.069 324.360,118.509 324.800 C 117.527 325.572,116.886 325.600,100.000 325.600 C 83.114 325.600,82.473 325.572,81.491 324.800 C 80.931 324.360,80.284 324.000,80.051 324.000 C 79.818 324.000,79.435 323.640,79.200 323.200 C 78.965 322.760,78.508 322.400,78.186 322.400 C 77.864 322.400,77.600 322.136,77.600 321.814 C 77.600 321.492,77.240 321.035,76.800 320.800 C 76.360 320.565,76.000 320.182,76.000 319.949 C 76.000 319.716,75.640 319.069,75.200 318.509 C 73.938 316.905,73.938 164.295,75.200 162.691 C 75.640 162.131,76.000 161.484,76.000 161.251 C 76.000 161.018,76.360 160.635,76.800 160.400 C 77.240 160.165,77.600 159.708,77.600 159.386 C 77.600 159.064,77.864 158.800,78.186 158.800 C 78.508 158.800,78.965 158.440,79.200 158.000 C 79.435 157.560,79.818 157.200,80.051 157.200 C 80.284 157.200,80.931 156.840,81.491 156.400 C 82.473 155.628,83.114 155.600,100.054 155.600 C 117.067 155.600,117.624 155.624,118.400 156.400 " stroke="none" fill="#205bab" fill-rule="evenodd"></path><path id="path3" d="M92.000 69.653 C 90.570 70.091,88.660 70.799,87.756 71.225 C 86.852 71.651,85.988 72.000,85.835 72.000 C 84.244 72.000,76.488 78.681,74.458 81.800 C 72.633 84.604,70.400 88.894,70.400 89.596 C 70.400 89.761,70.040 91.023,69.600 92.400 C 67.617 98.607,69.307 111.131,72.680 115.231 C 72.966 115.579,73.200 115.992,73.200 116.149 C 73.200 118.243,82.024 126.414,86.000 128.001 C 86.550 128.221,87.328 128.590,87.729 128.821 C 96.624 133.962,113.386 130.805,121.937 122.378 C 124.204 120.144,127.171 116.051,128.012 114.000 C 128.237 113.450,128.677 112.460,128.991 111.800 C 132.010 105.436,131.923 93.096,128.821 87.729 C 128.590 87.328,128.221 86.550,128.001 86.000 C 127.230 84.070,124.309 79.988,122.161 77.839 C 120.012 75.691,115.930 72.770,114.000 71.999 C 113.450 71.779,112.672 71.410,112.271 71.179 C 108.218 68.836,97.332 68.017,92.000 69.653 M107.600 70.136 C 109.992 70.788,110.718 71.060,113.600 72.381 C 115.154 73.093,116.979 74.099,117.200 74.364 C 117.310 74.496,118.038 75.079,118.817 75.659 C 120.629 77.008,122.992 79.371,124.341 81.183 C 124.921 81.962,125.504 82.690,125.636 82.800 C 126.036 83.133,127.079 85.165,128.613 88.600 C 129.757 91.161,130.800 96.598,130.800 100.000 C 130.800 103.402,129.757 108.839,128.613 111.400 C 127.079 114.835,126.036 116.867,125.636 117.200 C 125.504 117.310,124.907 118.056,124.310 118.857 C 121.571 122.535,116.060 126.707,112.000 128.178 C 111.670 128.297,111.130 128.562,110.800 128.766 C 106.681 131.312,94.436 131.229,88.600 128.615 C 85.121 127.057,83.132 126.035,82.800 125.636 C 82.690 125.504,81.962 124.921,81.183 124.341 C 79.371 122.992,77.008 120.629,75.659 118.817 C 75.079 118.038,74.496 117.310,74.364 117.200 C 74.099 116.979,73.093 115.154,72.381 113.600 C 71.062 110.723,70.788 109.993,70.125 107.600 C 69.129 104.001,69.129 95.999,70.125 92.400 C 70.788 90.007,71.062 89.277,72.381 86.400 C 73.093 84.846,74.099 83.021,74.364 82.800 C 74.496 82.690,75.079 81.962,75.659 81.183 C 77.008 79.371,79.371 77.008,81.183 75.659 C 81.962 75.079,82.690 74.496,82.800 74.364 C 83.021 74.099,84.846 73.093,86.400 72.381 C 89.309 71.048,90.007 70.794,92.379 70.211 C 93.797 69.862,95.051 69.482,95.167 69.367 C 95.656 68.877,105.135 69.464,107.600 70.136 M255.000 150.383 C 254.120 150.562,252.320 150.907,251.000 151.150 C 248.399 151.628,243.723 152.982,241.800 153.812 C 230.745 158.586,223.386 164.056,217.058 172.200 C 216.033 173.520,215.037 174.794,214.846 175.030 C 214.655 175.267,214.221 175.987,213.881 176.630 L 213.264 177.800 212.832 176.674 C 212.594 176.055,212.400 173.422,212.400 170.824 C 212.400 163.644,210.226 159.728,204.941 157.391 L 202.700 156.400 187.339 156.400 L 171.977 156.400 169.671 157.564 C 166.788 159.020,165.041 160.776,163.669 163.600 L 162.600 165.800 162.600 240.600 L 162.600 315.400 163.705 317.685 C 165.076 320.522,167.138 322.572,170.000 323.945 L 172.200 325.000 187.400 325.000 L 202.600 325.000 204.800 323.945 C 207.722 322.543,209.845 320.400,211.248 317.434 L 212.399 315.000 212.429 269.000 C 212.445 243.700,212.602 222.100,212.777 221.000 C 213.253 218.019,214.422 213.906,215.048 213.011 C 215.352 212.577,215.600 211.960,215.600 211.640 C 215.600 208.715,225.951 198.229,230.050 197.001 C 230.573 196.845,231.369 196.485,231.819 196.202 C 235.243 194.051,247.897 193.077,251.076 194.720 C 251.474 194.926,252.463 195.214,253.273 195.360 C 256.828 196.002,264.373 200.920,267.278 204.489 C 269.131 206.766,271.600 210.315,271.600 210.702 C 271.600 210.872,271.940 211.646,272.355 212.420 C 275.079 217.503,275.147 218.896,275.175 269.850 L 275.200 315.100 276.191 317.341 C 277.453 320.194,279.806 322.547,282.659 323.809 L 284.900 324.800 300.000 324.800 L 315.100 324.800 317.341 323.809 C 320.194 322.547,322.547 320.194,323.809 317.341 L 324.800 315.100 324.800 262.473 C 324.800 206.554,324.874 209.091,322.950 199.000 C 321.784 192.883,321.530 191.824,320.966 190.735 C 320.655 190.133,320.400 189.336,320.400 188.964 C 320.400 188.322,320.083 187.562,317.662 182.400 C 312.432 171.251,304.049 162.501,293.395 157.072 C 290.333 155.511,284.834 153.200,284.200 153.207 C 283.980 153.210,282.630 152.866,281.200 152.443 C 274.448 150.448,260.200 149.328,255.000 150.383 M270.200 150.963 C 271.520 151.266,273.860 151.634,275.400 151.781 C 276.940 151.928,279.236 152.397,280.502 152.824 C 281.767 153.251,283.242 153.600,283.778 153.600 C 284.314 153.600,284.856 153.767,284.982 153.971 C 285.108 154.175,285.884 154.548,286.706 154.801 C 287.528 155.054,288.740 155.499,289.400 155.791 C 290.060 156.084,291.050 156.521,291.600 156.763 C 300.244 160.575,309.470 169.015,314.598 177.800 C 316.254 180.638,318.397 184.927,318.399 185.406 C 318.399 185.629,318.760 186.484,319.200 187.304 C 319.640 188.125,320.006 189.203,320.014 189.699 C 320.021 190.194,320.375 191.320,320.800 192.200 C 321.225 193.080,321.587 194.430,321.604 195.200 C 321.621 195.970,321.901 197.320,322.227 198.200 C 322.552 199.080,322.982 201.690,323.181 204.000 C 323.380 206.310,323.735 208.707,323.971 209.326 C 324.539 210.818,324.578 315.043,324.011 315.393 C 323.797 315.526,323.437 316.320,323.211 317.160 C 322.661 319.200,319.200 322.661,317.160 323.211 C 316.320 323.437,315.526 323.797,315.393 324.011 C 315.244 324.252,309.388 324.400,300.000 324.400 C 290.612 324.400,284.756 324.252,284.607 324.011 C 284.474 323.797,283.656 323.431,282.788 323.197 C 280.912 322.692,277.332 319.308,276.956 317.685 C 276.818 317.088,276.464 316.214,276.170 315.742 C 275.734 315.040,275.614 306.021,275.518 266.524 C 275.411 222.701,275.339 218.071,274.751 217.173 C 274.393 216.628,273.974 215.432,273.819 214.514 C 273.664 213.597,273.282 212.634,272.969 212.374 C 272.656 212.114,272.400 211.588,272.400 211.205 C 272.400 210.822,272.085 210.077,271.700 209.549 C 271.315 209.022,270.820 208.303,270.600 207.952 C 269.216 205.740,268.390 204.740,266.163 202.579 C 263.927 200.410,259.160 196.800,258.531 196.800 C 258.397 196.800,257.548 196.455,256.644 196.033 C 250.852 193.329,239.744 192.347,235.914 194.200 C 235.316 194.489,234.112 194.846,233.237 194.994 C 232.362 195.142,231.434 195.518,231.174 195.831 C 230.914 196.144,230.388 196.400,230.005 196.400 C 229.622 196.400,228.877 196.715,228.349 197.100 C 227.822 197.485,227.103 197.980,226.752 198.200 C 221.697 201.363,216.822 206.938,215.035 211.600 C 214.909 211.930,214.639 212.470,214.436 212.800 C 214.233 213.130,213.647 214.660,213.133 216.200 L 212.200 219.000 212.000 267.039 C 211.857 301.414,211.673 315.237,211.355 315.639 C 211.110 315.947,210.791 316.698,210.646 317.306 C 210.162 319.330,206.325 323.200,204.802 323.200 C 204.459 323.200,203.733 323.515,203.189 323.900 C 202.290 324.536,200.852 324.600,187.400 324.600 C 173.948 324.600,172.510 324.536,171.611 323.900 C 171.067 323.515,170.330 323.200,169.972 323.200 C 168.966 323.200,165.667 320.277,164.896 318.702 C 162.839 314.502,163.000 321.138,163.000 240.400 C 163.000 170.559,163.041 166.130,163.698 165.000 C 164.081 164.340,164.396 163.653,164.398 163.473 C 164.401 163.041,166.463 160.285,167.078 159.891 C 167.343 159.721,167.821 159.322,168.140 159.003 C 169.953 157.189,171.438 157.027,187.300 156.901 C 199.726 156.803,202.559 156.881,203.300 157.343 C 203.795 157.652,204.665 158.012,205.234 158.143 C 206.792 158.503,210.326 162.239,210.811 164.040 C 211.037 164.880,211.397 165.674,211.611 165.807 C 211.826 165.940,212.018 168.312,212.040 171.124 C 212.083 176.668,212.336 178.200,213.206 178.200 C 213.520 178.200,214.000 177.750,214.274 177.200 C 216.637 172.446,229.349 159.600,231.689 159.600 C 231.935 159.600,232.421 159.345,232.769 159.033 C 233.711 158.185,240.493 154.800,241.247 154.800 C 241.607 154.800,242.110 154.550,242.364 154.243 C 242.618 153.937,243.660 153.562,244.680 153.409 C 245.699 153.256,246.908 152.895,247.367 152.607 C 247.825 152.319,249.370 151.962,250.800 151.813 C 252.230 151.664,254.300 151.298,255.400 150.998 C 258.073 150.271,267.091 150.249,270.200 150.963 M82.200 157.569 C 79.334 158.936,77.306 161.021,75.977 163.968 L 75.000 166.135 75.000 240.768 L 75.000 315.400 76.051 317.601 C 77.348 320.316,79.534 322.486,82.409 323.913 L 84.600 325.000 100.000 325.000 L 115.400 325.000 117.801 323.744 C 120.827 322.161,122.161 320.827,123.744 317.801 L 125.000 315.400 125.000 240.600 L 125.000 165.800 123.736 163.400 C 122.218 160.518,120.526 158.859,117.667 157.451 L 115.534 156.400 100.067 156.412 L 84.600 156.424 82.200 157.569 M116.445 157.576 C 119.082 158.756,121.030 160.089,121.738 161.199 C 124.895 166.145,124.600 157.953,124.600 240.600 C 124.600 320.298,124.721 315.206,122.748 318.400 C 121.387 320.603,120.951 321.135,120.032 321.720 C 115.420 324.656,115.992 324.562,101.800 324.715 C 82.730 324.922,79.203 323.820,76.476 316.800 C 75.243 313.625,75.187 309.937,75.293 238.888 C 75.409 160.448,75.263 166.102,77.260 162.800 C 78.961 159.988,79.478 159.548,83.200 157.741 C 85.853 156.453,113.629 156.315,116.445 157.576 " stroke="none" fill="#9cb4d6" fill-rule="evenodd"></path><path id="path4" d="M91.400 69.200 C 90.520 69.625,89.327 69.979,88.749 69.986 C 88.171 69.994,87.483 70.258,87.221 70.574 C 86.959 70.890,86.205 71.267,85.545 71.412 C 84.886 71.557,84.249 71.928,84.130 72.238 C 84.012 72.547,83.718 72.800,83.479 72.800 C 81.615 72.800,72.800 81.615,72.800 83.479 C 72.800 83.718,72.547 84.012,72.238 84.130 C 71.928 84.249,71.547 84.933,71.389 85.650 C 71.231 86.368,70.854 87.203,70.551 87.506 C 70.248 87.809,69.994 88.449,69.986 88.929 C 69.979 89.408,69.625 90.520,69.200 91.400 C 68.047 93.786,68.047 106.214,69.200 108.600 C 69.625 109.480,69.979 110.592,69.986 111.071 C 69.994 111.551,70.248 112.191,70.551 112.494 C 70.854 112.797,71.231 113.632,71.389 114.350 C 71.547 115.067,71.928 115.751,72.238 115.870 C 72.547 115.988,72.800 116.329,72.800 116.627 C 72.800 118.388,81.700 127.200,83.479 127.200 C 83.718 127.200,84.012 127.453,84.130 127.762 C 84.249 128.072,84.933 128.453,85.650 128.611 C 86.368 128.769,87.203 129.146,87.506 129.449 C 87.809 129.752,88.449 130.006,88.929 130.014 C 89.408 130.021,90.520 130.375,91.400 130.800 C 95.110 132.592,106.821 131.733,111.902 129.296 C 113.605 128.480,113.301 128.189,111.550 128.959 C 104.632 132.001,93.114 131.934,87.729 128.821 C 87.328 128.590,86.550 128.221,86.000 128.001 C 82.024 126.414,73.200 118.243,73.200 116.149 C 73.200 115.992,72.966 115.579,72.680 115.231 C 69.307 111.131,67.617 98.607,69.600 92.400 C 70.040 91.023,70.400 89.761,70.400 89.596 C 70.400 88.894,72.633 84.604,74.458 81.800 C 76.488 78.681,84.244 72.000,85.835 72.000 C 85.988 72.000,86.852 71.652,87.756 71.227 C 94.643 67.987,106.708 67.964,112.271 71.179 C 112.672 71.410,113.450 71.779,114.000 71.999 C 115.930 72.770,120.012 75.691,122.161 77.839 C 124.309 79.988,127.230 84.070,128.001 86.000 C 128.221 86.550,128.590 87.328,128.821 87.729 C 131.923 93.096,132.010 105.436,128.991 111.800 C 128.677 112.460,128.237 113.450,128.012 114.000 C 127.171 116.051,124.204 120.144,121.937 122.378 C 120.438 123.855,116.852 126.426,114.200 127.924 C 113.760 128.172,113.632 128.381,113.916 128.388 C 114.200 128.395,114.920 128.068,115.516 127.663 C 116.112 127.257,117.410 126.402,118.400 125.763 C 120.539 124.381,120.656 124.293,122.198 122.922 C 123.844 121.458,127.200 117.211,127.200 116.592 C 127.200 116.313,127.453 115.988,127.762 115.870 C 128.072 115.751,128.453 115.067,128.611 114.350 C 128.769 113.632,129.146 112.797,129.449 112.494 C 129.752 112.191,130.006 111.551,130.014 111.071 C 130.021 110.592,130.375 109.480,130.800 108.600 C 131.473 107.206,131.573 106.099,131.573 100.000 C 131.573 93.901,131.473 92.794,130.800 91.400 C 130.375 90.520,130.021 89.408,130.014 88.929 C 130.006 88.449,129.752 87.809,129.449 87.506 C 129.146 87.203,128.769 86.368,128.611 85.650 C 128.453 84.933,128.072 84.249,127.762 84.130 C 127.453 84.012,127.200 83.687,127.200 83.408 C 127.200 81.733,118.297 72.800,116.627 72.800 C 116.329 72.800,115.988 72.547,115.870 72.238 C 115.751 71.928,115.067 71.547,114.350 71.389 C 113.632 71.231,112.797 70.854,112.494 70.551 C 112.191 70.248,111.551 69.994,111.071 69.986 C 110.592 69.979,109.480 69.625,108.600 69.200 C 107.206 68.527,106.099 68.427,100.000 68.427 C 93.901 68.427,92.794 68.527,91.400 69.200 M259.700 149.897 C 261.405 149.972,264.195 149.972,265.900 149.897 C 267.605 149.822,266.210 149.761,262.800 149.761 C 259.390 149.761,257.995 149.822,259.700 149.897 M251.800 150.623 L 250.200 151.185 251.800 150.954 C 252.680 150.826,254.120 150.582,255.000 150.411 L 256.600 150.100 255.000 150.081 C 254.120 150.070,252.680 150.314,251.800 150.623 M271.200 150.388 C 272.190 150.543,273.720 150.790,274.600 150.937 L 276.200 151.204 274.800 150.632 C 274.030 150.318,272.500 150.071,271.400 150.084 L 269.400 150.107 271.200 150.388 M247.200 151.467 C 246.870 151.580,246.033 151.926,245.340 152.236 C 244.646 152.546,243.814 152.800,243.489 152.800 C 242.693 152.800,236.643 155.576,236.893 155.826 C 237.002 155.936,237.611 155.757,238.246 155.429 C 241.084 153.962,246.087 152.138,248.800 151.580 C 250.154 151.302,250.160 151.292,249.000 151.278 C 248.340 151.270,247.530 151.355,247.200 151.467 M277.105 151.483 C 277.602 151.579,278.322 151.575,278.705 151.475 C 279.087 151.375,278.680 151.296,277.800 151.301 C 276.920 151.305,276.607 151.387,277.105 151.483 M280.746 152.216 C 281.486 152.537,282.296 152.794,282.546 152.786 C 283.336 152.761,281.037 151.628,280.200 151.630 C 279.648 151.631,279.817 151.812,280.746 152.216 M284.200 153.171 C 284.860 153.331,285.820 153.687,286.334 153.963 C 286.848 154.239,287.350 154.384,287.449 154.285 C 287.764 153.970,284.917 152.798,283.940 152.841 C 283.148 152.875,283.189 152.927,284.200 153.171 M288.400 154.684 C 300.298 159.069,311.591 169.691,317.568 182.121 C 318.076 183.177,318.569 183.964,318.664 183.869 C 318.821 183.713,317.667 181.097,316.781 179.600 C 316.586 179.270,315.843 178.010,315.130 176.800 C 314.417 175.590,313.690 174.420,313.514 174.200 C 313.338 173.980,312.321 172.685,311.255 171.321 C 305.684 164.200,292.260 154.285,288.400 154.439 C 287.867 154.460,287.867 154.488,288.400 154.684 M82.200 157.016 C 78.187 158.928,74.734 163.656,74.853 167.075 L 74.907 168.600 75.193 166.800 C 75.866 162.571,78.439 159.261,82.474 157.431 L 84.749 156.400 100.142 156.400 L 115.534 156.400 117.667 157.451 C 121.571 159.373,124.232 162.850,124.824 166.800 L 125.093 168.600 125.147 167.075 C 125.269 163.590,121.790 158.878,117.719 157.014 L 115.503 156.000 99.852 156.032 C 84.220 156.063,84.197 156.064,82.200 157.016 M169.800 156.999 C 166.184 158.759,162.308 163.575,162.447 166.133 C 162.490 166.919,162.520 166.907,162.764 166.000 C 163.798 162.162,166.078 159.378,169.671 157.564 L 171.977 156.400 187.338 156.400 C 205.513 156.400,206.535 156.624,210.037 161.379 C 210.677 162.247,211.200 162.738,211.200 162.470 C 211.200 161.482,207.780 158.313,205.484 157.174 L 203.118 156.000 187.459 156.013 L 171.800 156.025 169.800 156.999 M234.813 156.585 C 234.546 156.906,233.949 157.289,233.486 157.436 C 231.475 158.075,224.899 163.191,221.126 167.053 C 218.108 170.142,213.600 175.797,213.600 176.493 C 213.600 176.688,213.420 176.736,213.200 176.600 C 212.980 176.464,212.800 176.533,212.800 176.753 C 212.800 177.629,213.509 177.517,213.940 176.572 C 214.191 176.021,214.577 175.352,214.797 175.085 C 215.017 174.818,216.343 173.160,217.744 171.400 C 222.019 166.030,227.277 161.483,233.287 157.960 C 235.109 156.892,236.307 156.014,235.949 156.009 C 235.591 156.004,235.080 156.263,234.813 156.585 M211.200 163.337 C 211.200 163.511,211.425 164.046,211.700 164.526 C 211.991 165.036,212.299 167.652,212.438 170.800 L 212.676 176.200 212.638 170.600 C 212.606 165.952,212.481 164.832,211.900 164.011 C 211.515 163.467,211.200 163.164,211.200 163.337 M162.196 240.600 C 162.196 279.980,162.243 296.031,162.300 276.268 C 162.357 256.506,162.357 224.286,162.300 204.668 C 162.243 185.051,162.196 201.220,162.196 240.600 M318.800 184.707 C 318.800 184.980,319.160 185.875,319.600 186.696 C 320.040 187.516,320.400 187.965,320.400 187.693 C 320.400 187.420,320.040 186.525,319.600 185.704 C 319.160 184.884,318.800 184.435,318.800 184.707 M320.551 189.200 C 320.652 189.750,321.027 190.920,321.384 191.800 C 321.740 192.680,321.950 192.950,321.849 192.400 C 321.748 191.850,321.373 190.680,321.016 189.800 C 320.660 188.920,320.450 188.650,320.551 189.200 M322.047 194.200 C 322.028 194.640,322.281 195.810,322.610 196.800 C 323.000 197.974,323.146 198.183,323.031 197.400 C 322.748 195.471,322.085 193.318,322.047 194.200 M236.800 194.600 C 236.030 194.897,235.037 195.153,234.594 195.170 C 234.151 195.186,233.161 195.535,232.394 195.944 C 231.627 196.353,230.550 196.828,230.000 196.999 C 229.120 197.273,226.805 198.800,227.270 198.800 C 227.368 198.800,228.761 198.153,230.366 197.362 C 231.972 196.572,234.931 195.506,236.942 194.994 C 238.954 194.482,240.060 194.063,239.400 194.062 C 238.740 194.061,237.570 194.303,236.800 194.600 M247.600 194.285 C 248.150 194.381,249.371 194.717,250.314 195.030 C 251.257 195.344,252.427 195.579,252.914 195.554 C 253.723 195.511,253.731 195.491,253.000 195.320 C 252.560 195.217,251.429 194.877,250.486 194.566 C 249.543 194.255,248.283 194.025,247.686 194.054 C 246.611 194.108,246.610 194.111,247.600 194.285 M254.611 196.137 C 255.045 196.433,255.975 196.870,256.677 197.109 C 258.905 197.865,263.589 201.187,266.309 203.940 C 268.469 206.125,268.665 206.259,267.412 204.689 C 265.356 202.115,261.668 199.246,257.848 197.248 C 254.802 195.656,252.992 195.034,254.611 196.137 M225.413 199.722 C 222.464 201.904,216.988 208.000,217.978 208.000 C 218.199 208.000,218.652 207.473,218.985 206.829 C 219.726 205.396,224.589 200.521,225.597 200.201 C 225.998 200.074,226.427 199.706,226.550 199.385 C 226.827 198.664,226.856 198.655,225.413 199.722 M216.491 209.749 C 216.001 210.464,215.613 211.308,215.628 211.625 C 215.652 212.104,215.701 212.100,215.928 211.600 C 216.078 211.270,216.539 210.499,216.954 209.888 C 217.369 209.276,217.635 208.702,217.545 208.612 C 217.455 208.522,216.981 209.034,216.491 209.749 M324.994 263.000 C 324.994 291.820,325.042 303.551,325.100 289.069 C 325.158 274.587,325.158 251.007,325.100 236.669 C 325.042 222.331,324.994 234.180,324.994 263.000 M214.857 213.257 C 214.575 213.709,214.432 214.166,214.540 214.273 C 214.647 214.381,214.944 214.078,215.200 213.600 C 215.805 212.470,215.524 212.190,214.857 213.257 M213.655 216.841 C 212.768 220.359,212.736 221.606,213.606 218.800 C 214.049 217.370,214.364 215.858,214.306 215.441 C 214.248 215.023,213.955 215.653,213.655 216.841 M212.593 268.000 C 212.593 293.190,212.641 303.495,212.700 290.900 C 212.759 278.305,212.759 257.695,212.700 245.100 C 212.641 232.505,212.593 242.810,212.593 268.000 M274.993 269.400 C 274.993 294.700,275.041 304.991,275.100 292.269 C 275.159 279.547,275.159 258.847,275.100 246.269 C 275.041 233.691,274.993 244.100,274.993 269.400 M74.853 314.140 C 74.804 315.569,75.879 318.655,76.285 318.249 C 76.384 318.150,76.233 317.648,75.951 317.134 C 75.668 316.620,75.317 315.390,75.172 314.400 L 74.907 312.600 74.853 314.140 M124.867 314.111 C 124.655 318.876,119.605 324.044,114.400 324.824 L 112.600 325.093 114.125 325.147 C 118.940 325.315,125.569 318.623,125.090 314.077 L 124.934 312.600 124.867 314.111 M162.447 315.067 C 162.389 316.144,164.141 319.701,165.094 320.439 C 165.759 320.954,165.762 320.940,165.140 320.193 C 164.410 319.316,163.191 316.751,162.768 315.200 C 162.520 314.292,162.490 314.280,162.447 315.067 M275.228 315.800 C 275.228 316.020,275.486 316.650,275.800 317.200 C 276.114 317.750,276.372 318.020,276.372 317.800 C 276.372 317.580,276.114 316.950,275.800 316.400 C 275.486 315.850,275.228 315.580,275.228 315.800 M324.065 316.617 C 323.395 318.088,323.523 318.402,324.247 317.065 C 324.586 316.440,324.788 315.854,324.696 315.763 C 324.605 315.671,324.321 316.056,324.065 316.617 M210.089 319.517 L 209.179 321.000 210.189 319.878 C 210.745 319.260,211.200 318.585,211.200 318.378 C 211.200 317.790,211.065 317.928,210.089 319.517 M76.400 319.103 C 76.400 320.927,83.165 325.242,85.875 325.147 L 87.400 325.093 85.600 324.808 C 82.408 324.303,79.682 322.708,77.500 320.069 C 76.895 319.337,76.400 318.903,76.400 319.103 M166.600 322.165 C 168.544 323.842,171.525 325.205,173.133 325.150 L 174.600 325.100 173.000 324.810 C 171.128 324.470,167.805 323.056,167.422 322.435 C 167.275 322.198,166.760 321.807,166.278 321.567 C 165.669 321.263,165.767 321.446,166.600 322.165 M207.722 322.229 L 206.600 323.258 207.900 322.354 C 208.615 321.857,209.200 321.393,209.200 321.325 C 209.200 321.009,208.758 321.280,207.722 322.229 M282.800 324.200 C 283.350 324.514,283.980 324.772,284.200 324.772 C 284.420 324.772,284.150 324.514,283.600 324.200 C 283.050 323.886,282.420 323.628,282.200 323.628 C 281.980 323.628,282.250 323.886,282.800 324.200 M316.400 324.200 C 315.850 324.514,315.580 324.772,315.800 324.772 C 316.020 324.772,316.650 324.514,317.200 324.200 C 317.750 323.886,318.020 323.628,317.800 323.628 C 317.580 323.628,316.950 323.886,316.400 324.200 M203.859 324.274 C 203.708 324.425,202.823 324.672,201.893 324.824 L 200.200 325.100 201.624 325.150 C 202.715 325.188,205.414 324.070,204.367 324.013 C 204.238 324.006,204.010 324.123,203.859 324.274 M292.300 325.099 C 296.535 325.164,303.465 325.164,307.700 325.099 C 311.935 325.035,308.470 324.982,300.000 324.982 C 291.530 324.982,288.065 325.035,292.300 325.099" stroke="none" fill="#84acdc" fill-rule="evenodd">
</path>
</g>
</svg>